<svg height="3614" width="720" xmlns="http://www.w3.org/2000/svg">
<rect height="3614" fill="#555" width="720"></rect>
<text fill="#7f7" font-family="Courier New" font-size="12" xml:space="preserve">
<tspan x="10" y="26">22 megabytes installed</tspan>
<tspan x="10" y="42"></tspan>
<tspan x="10" y="58">node_modules</tspan>
<tspan x="10" y="74">└─┬ rtail@0.2.1 </tspan>
<tspan x="10" y="90">  ├─┬ chrono-node@1.3.1 </tspan>
<tspan x="10" y="106">  │ └── moment@2.18.1 </tspan>
<tspan x="10" y="122">  ├─┬ debug@2.6.3 </tspan>
<tspan x="10" y="138">  │ └── ms@0.7.2 </tspan>
<tspan x="10" y="154">  ├─┬ express@4.15.2 </tspan>
<tspan x="10" y="170">  │ ├─┬ accepts@1.3.3 </tspan>
<tspan x="10" y="186">  │ │ └── negotiator@0.6.1 </tspan>
<tspan x="10" y="202">  │ ├── array-flatten@1.1.1 </tspan>
<tspan x="10" y="218">  │ ├── content-disposition@0.5.2 </tspan>
<tspan x="10" y="234">  │ ├── content-type@1.0.2 </tspan>
<tspan x="10" y="250">  │ ├── cookie@0.3.1 </tspan>
<tspan x="10" y="266">  │ ├── cookie-signature@1.0.6 </tspan>
<tspan x="10" y="282">  │ ├── debug@2.6.1 </tspan>
<tspan x="10" y="298">  │ ├── depd@1.1.0 </tspan>
<tspan x="10" y="314">  │ ├── encodeurl@1.0.1 </tspan>
<tspan x="10" y="330">  │ ├── escape-html@1.0.3 </tspan>
<tspan x="10" y="346">  │ ├── etag@1.8.0 </tspan>
<tspan x="10" y="362">  │ ├─┬ finalhandler@1.0.1 </tspan>
<tspan x="10" y="378">  │ │ └── unpipe@1.0.0 </tspan>
<tspan x="10" y="394">  │ ├── fresh@0.5.0 </tspan>
<tspan x="10" y="410">  │ ├── merge-descriptors@1.0.1 </tspan>
<tspan x="10" y="426">  │ ├── methods@1.1.2 </tspan>
<tspan x="10" y="442">  │ ├─┬ on-finished@2.3.0 </tspan>
<tspan x="10" y="458">  │ │ └── ee-first@1.1.1 </tspan>
<tspan x="10" y="474">  │ ├── parseurl@1.3.1 </tspan>
<tspan x="10" y="490">  │ ├── path-to-regexp@0.1.7 </tspan>
<tspan x="10" y="506">  │ ├─┬ proxy-addr@1.1.4 </tspan>
<tspan x="10" y="522">  │ │ ├── forwarded@0.1.0 </tspan>
<tspan x="10" y="538">  │ │ └── ipaddr.js@1.3.0 </tspan>
<tspan x="10" y="554">  │ ├── qs@6.4.0 </tspan>
<tspan x="10" y="570">  │ ├── range-parser@1.2.0 </tspan>
<tspan x="10" y="586">  │ ├─┬ send@0.15.1 </tspan>
<tspan x="10" y="602">  │ │ ├── debug@2.6.1 </tspan>
<tspan x="10" y="618">  │ │ ├── destroy@1.0.4 </tspan>
<tspan x="10" y="634">  │ │ ├─┬ http-errors@1.6.1 </tspan>
<tspan x="10" y="650">  │ │ │ └── inherits@2.0.3 </tspan>
<tspan x="10" y="666">  │ │ └── mime@1.3.4 </tspan>
<tspan x="10" y="682">  │ ├── serve-static@1.12.1 </tspan>
<tspan x="10" y="698">  │ ├── setprototypeof@1.0.3 </tspan>
<tspan x="10" y="714">  │ ├── statuses@1.3.1 </tspan>
<tspan x="10" y="730">  │ ├─┬ type-is@1.6.15 </tspan>
<tspan x="10" y="746">  │ │ └── media-typer@0.3.0 </tspan>
<tspan x="10" y="762">  │ ├── utils-merge@1.0.0 </tspan>
<tspan x="10" y="778">  │ └── vary@1.1.1 </tspan>
<tspan x="10" y="794">  ├── json5@0.4.0 </tspan>
<tspan x="10" y="810">  ├── moniker@0.1.2 </tspan>
<tspan x="10" y="826">  ├─┬ request@2.81.0 </tspan>
<tspan x="10" y="842">  │ ├── aws-sign2@0.6.0 </tspan>
<tspan x="10" y="858">  │ ├── aws4@1.6.0 </tspan>
<tspan x="10" y="874">  │ ├── caseless@0.12.0 </tspan>
<tspan x="10" y="890">  │ ├─┬ combined-stream@1.0.5 </tspan>
<tspan x="10" y="906">  │ │ └── delayed-stream@1.0.0 </tspan>
<tspan x="10" y="922">  │ ├── extend@3.0.0 </tspan>
<tspan x="10" y="938">  │ ├── forever-agent@0.6.1 </tspan>
<tspan x="10" y="954">  │ ├─┬ form-data@2.1.4 </tspan>
<tspan x="10" y="970">  │ │ └── asynckit@0.4.0 </tspan>
<tspan x="10" y="986">  │ ├─┬ har-validator@4.2.1 </tspan>
<tspan x="10" y="1002">  │ │ ├─┬ ajv@4.11.7 </tspan>
<tspan x="10" y="1018">  │ │ │ ├── co@4.6.0 </tspan>
<tspan x="10" y="1034">  │ │ │ └─┬ json-stable-stringify@1.0.1 </tspan>
<tspan x="10" y="1050">  │ │ │   └── jsonify@0.0.0 </tspan>
<tspan x="10" y="1066">  │ │ └── har-schema@1.0.5 </tspan>
<tspan x="10" y="1082">  │ ├─┬ hawk@3.1.3 </tspan>
<tspan x="10" y="1098">  │ │ ├── boom@2.10.1 </tspan>
<tspan x="10" y="1114">  │ │ ├── cryptiles@2.0.5 </tspan>
<tspan x="10" y="1130">  │ │ ├── hoek@2.16.3 </tspan>
<tspan x="10" y="1146">  │ │ └── sntp@1.0.9 </tspan>
<tspan x="10" y="1162">  │ ├─┬ http-signature@1.1.1 </tspan>
<tspan x="10" y="1178">  │ │ ├── assert-plus@0.2.0 </tspan>
<tspan x="10" y="1194">  │ │ ├─┬ jsprim@1.4.0 </tspan>
<tspan x="10" y="1210">  │ │ │ ├── assert-plus@1.0.0 </tspan>
<tspan x="10" y="1226">  │ │ │ ├── extsprintf@1.0.2 </tspan>
<tspan x="10" y="1242">  │ │ │ ├── json-schema@0.2.3 </tspan>
<tspan x="10" y="1258">  │ │ │ └── verror@1.3.6 </tspan>
<tspan x="10" y="1274">  │ │ └─┬ sshpk@1.13.0 </tspan>
<tspan x="10" y="1290">  │ │   ├── asn1@0.2.3 </tspan>
<tspan x="10" y="1306">  │ │   ├── assert-plus@1.0.0 </tspan>
<tspan x="10" y="1322">  │ │   ├── bcrypt-pbkdf@1.0.1 </tspan>
<tspan x="10" y="1338">  │ │   ├─┬ dashdash@1.14.1 </tspan>
<tspan x="10" y="1354">  │ │   │ └── assert-plus@1.0.0 </tspan>
<tspan x="10" y="1370">  │ │   ├── ecc-jsbn@0.1.1 </tspan>
<tspan x="10" y="1386">  │ │   ├─┬ getpass@0.1.6 </tspan>
<tspan x="10" y="1402">  │ │   │ └── assert-plus@1.0.0 </tspan>
<tspan x="10" y="1418">  │ │   ├── jodid25519@1.0.2 </tspan>
<tspan x="10" y="1434">  │ │   ├── jsbn@0.1.1 </tspan>
<tspan x="10" y="1450">  │ │   └── tweetnacl@0.14.5 </tspan>
<tspan x="10" y="1466">  │ ├── is-typedarray@1.0.0 </tspan>
<tspan x="10" y="1482">  │ ├── isstream@0.1.2 </tspan>
<tspan x="10" y="1498">  │ ├── json-stringify-safe@5.0.1 </tspan>
<tspan x="10" y="1514">  │ ├─┬ mime-types@2.1.15 </tspan>
<tspan x="10" y="1530">  │ │ └── mime-db@1.27.0 </tspan>
<tspan x="10" y="1546">  │ ├── oauth-sign@0.8.2 </tspan>
<tspan x="10" y="1562">  │ ├── performance-now@0.2.0 </tspan>
<tspan x="10" y="1578">  │ ├── safe-buffer@5.0.1 </tspan>
<tspan x="10" y="1594">  │ ├── stringstream@0.0.5 </tspan>
<tspan x="10" y="1610">  │ ├─┬ tough-cookie@2.3.2 </tspan>
<tspan x="10" y="1626">  │ │ └── punycode@1.4.1 </tspan>
<tspan x="10" y="1642">  │ ├── tunnel-agent@0.6.0 </tspan>
<tspan x="10" y="1658">  │ └── uuid@3.0.1 </tspan>
<tspan x="10" y="1674">  ├─┬ socket.io@1.7.3 </tspan>
<tspan x="10" y="1690">  │ ├── debug@2.3.3 </tspan>
<tspan x="10" y="1706">  │ ├─┬ engine.io@1.8.3 </tspan>
<tspan x="10" y="1722">  │ │ ├── base64id@1.0.0 </tspan>
<tspan x="10" y="1738">  │ │ ├── debug@2.3.3 </tspan>
<tspan x="10" y="1754">  │ │ ├─┬ engine.io-parser@1.3.2 </tspan>
<tspan x="10" y="1770">  │ │ │ ├── after@0.8.2 </tspan>
<tspan x="10" y="1786">  │ │ │ ├── arraybuffer.slice@0.0.6 </tspan>
<tspan x="10" y="1802">  │ │ │ ├── base64-arraybuffer@0.1.5 </tspan>
<tspan x="10" y="1818">  │ │ │ ├── blob@0.0.4 </tspan>
<tspan x="10" y="1834">  │ │ │ └── wtf-8@1.0.0 </tspan>
<tspan x="10" y="1850">  │ │ └─┬ ws@1.1.2 </tspan>
<tspan x="10" y="1866">  │ │   ├── options@0.0.6 </tspan>
<tspan x="10" y="1882">  │ │   └── ultron@1.0.2 </tspan>
<tspan x="10" y="1898">  │ ├─┬ has-binary@0.1.7 </tspan>
<tspan x="10" y="1914">  │ │ └── isarray@0.0.1 </tspan>
<tspan x="10" y="1930">  │ ├── object-assign@4.1.0 </tspan>
<tspan x="10" y="1946">  │ ├─┬ socket.io-adapter@0.5.0 </tspan>
<tspan x="10" y="1962">  │ │ └── debug@2.3.3 </tspan>
<tspan x="10" y="1978">  │ ├─┬ socket.io-client@1.7.3 </tspan>
<tspan x="10" y="1994">  │ │ ├── backo2@1.0.2 </tspan>
<tspan x="10" y="2010">  │ │ ├── component-bind@1.0.0 </tspan>
<tspan x="10" y="2026">  │ │ ├── component-emitter@1.2.1 </tspan>
<tspan x="10" y="2042">  │ │ ├── debug@2.3.3 </tspan>
<tspan x="10" y="2058">  │ │ ├─┬ engine.io-client@1.8.3 </tspan>
<tspan x="10" y="2074">  │ │ │ ├── component-emitter@1.2.1 </tspan>
<tspan x="10" y="2090">  │ │ │ ├── component-inherit@0.0.3 </tspan>
<tspan x="10" y="2106">  │ │ │ ├── debug@2.3.3 </tspan>
<tspan x="10" y="2122">  │ │ │ ├── has-cors@1.1.0 </tspan>
<tspan x="10" y="2138">  │ │ │ ├── parsejson@0.0.3 </tspan>
<tspan x="10" y="2154">  │ │ │ ├── parseqs@0.0.5 </tspan>
<tspan x="10" y="2170">  │ │ │ ├── xmlhttprequest-ssl@1.5.3 </tspan>
<tspan x="10" y="2186">  │ │ │ └── yeast@0.1.2 </tspan>
<tspan x="10" y="2202">  │ │ ├── indexof@0.0.1 </tspan>
<tspan x="10" y="2218">  │ │ ├── object-component@0.0.3 </tspan>
<tspan x="10" y="2234">  │ │ ├─┬ parseuri@0.0.5 </tspan>
<tspan x="10" y="2250">  │ │ │ └─┬ better-assert@1.0.2 </tspan>
<tspan x="10" y="2266">  │ │ │   └── callsite@1.0.0 </tspan>
<tspan x="10" y="2282">  │ │ └── to-array@0.1.4 </tspan>
<tspan x="10" y="2298">  │ └─┬ socket.io-parser@2.3.1 </tspan>
<tspan x="10" y="2314">  │   ├── component-emitter@1.1.2 </tspan>
<tspan x="10" y="2330">  │   ├─┬ debug@2.2.0 </tspan>
<tspan x="10" y="2346">  │   │ └── ms@0.7.1 </tspan>
<tspan x="10" y="2362">  │   └── json3@3.3.2 </tspan>
<tspan x="10" y="2378">  ├─┬ split@1.0.0 </tspan>
<tspan x="10" y="2394">  │ └── through@2.3.8 </tspan>
<tspan x="10" y="2410">  ├─┬ strip-ansi@3.0.1 </tspan>
<tspan x="10" y="2426">  │ └── ansi-regex@2.1.1 </tspan>
<tspan x="10" y="2442">  ├─┬ through2-map@2.0.0 </tspan>
<tspan x="10" y="2458">  │ ├─┬ through2@2.0.3 </tspan>
<tspan x="10" y="2474">  │ │ └─┬ readable-stream@2.2.9 </tspan>
<tspan x="10" y="2490">  │ │   ├── buffer-shims@1.0.0 </tspan>
<tspan x="10" y="2506">  │ │   ├── core-util-is@1.0.2 </tspan>
<tspan x="10" y="2522">  │ │   ├── isarray@1.0.0 </tspan>
<tspan x="10" y="2538">  │ │   ├── process-nextick-args@1.0.7 </tspan>
<tspan x="10" y="2554">  │ │   ├── string_decoder@1.0.0 </tspan>
<tspan x="10" y="2570">  │ │   └── util-deprecate@1.0.2 </tspan>
<tspan x="10" y="2586">  │ └── xtend@4.0.1 </tspan>
<tspan x="10" y="2602">  ├─┬ update-notifier@0.5.0 </tspan>
<tspan x="10" y="2618">  │ ├─┬ chalk@1.1.3 </tspan>
<tspan x="10" y="2634">  │ │ ├── ansi-styles@2.2.1 </tspan>
<tspan x="10" y="2650">  │ │ ├── escape-string-regexp@1.0.5 </tspan>
<tspan x="10" y="2666">  │ │ ├── has-ansi@2.0.0 </tspan>
<tspan x="10" y="2682">  │ │ └── supports-color@2.0.0 </tspan>
<tspan x="10" y="2698">  │ ├─┬ configstore@1.4.0 </tspan>
<tspan x="10" y="2714">  │ │ ├── graceful-fs@4.1.11 </tspan>
<tspan x="10" y="2730">  │ │ ├─┬ mkdirp@0.5.1 </tspan>
<tspan x="10" y="2746">  │ │ │ └── minimist@0.0.8 </tspan>
<tspan x="10" y="2762">  │ │ ├── os-tmpdir@1.0.2 </tspan>
<tspan x="10" y="2778">  │ │ ├─┬ osenv@0.1.4 </tspan>
<tspan x="10" y="2794">  │ │ │ └── os-homedir@1.0.2 </tspan>
<tspan x="10" y="2810">  │ │ ├── uuid@2.0.3 </tspan>
<tspan x="10" y="2826">  │ │ ├─┬ write-file-atomic@1.3.1 </tspan>
<tspan x="10" y="2842">  │ │ │ ├── imurmurhash@0.1.4 </tspan>
<tspan x="10" y="2858">  │ │ │ └── slide@1.1.6 </tspan>
<tspan x="10" y="2874">  │ │ └── xdg-basedir@2.0.0 </tspan>
<tspan x="10" y="2890">  │ ├── is-npm@1.0.0 </tspan>
<tspan x="10" y="2906">  │ ├─┬ latest-version@1.0.1 </tspan>
<tspan x="10" y="2922">  │ │ └─┬ package-json@1.2.0 </tspan>
<tspan x="10" y="2938">  │ │   ├─┬ got@3.3.1 </tspan>
<tspan x="10" y="2954">  │ │   │ ├─┬ duplexify@3.5.0 </tspan>
<tspan x="10" y="2970">  │ │   │ │ ├─┬ end-of-stream@1.0.0 </tspan>
<tspan x="10" y="2986">  │ │   │ │ │ └─┬ once@1.3.3 </tspan>
<tspan x="10" y="3002">  │ │   │ │ │   └── wrappy@1.0.2 </tspan>
<tspan x="10" y="3018">  │ │   │ │ └── stream-shift@1.0.0 </tspan>
<tspan x="10" y="3034">  │ │   │ ├── infinity-agent@2.0.3 </tspan>
<tspan x="10" y="3050">  │ │   │ ├── is-redirect@1.0.0 </tspan>
<tspan x="10" y="3066">  │ │   │ ├── is-stream@1.1.0 </tspan>
<tspan x="10" y="3082">  │ │   │ ├── lowercase-keys@1.0.0 </tspan>
<tspan x="10" y="3098">  │ │   │ ├── nested-error-stacks@1.0.2 </tspan>
<tspan x="10" y="3114">  │ │   │ ├── object-assign@3.0.0 </tspan>
<tspan x="10" y="3130">  │ │   │ ├── prepend-http@1.0.4 </tspan>
<tspan x="10" y="3146">  │ │   │ ├─┬ read-all-stream@3.1.0 </tspan>
<tspan x="10" y="3162">  │ │   │ │ └─┬ pinkie-promise@2.0.1 </tspan>
<tspan x="10" y="3178">  │ │   │ │   └── pinkie@2.0.4 </tspan>
<tspan x="10" y="3194">  │ │   │ └── timed-out@2.0.0 </tspan>
<tspan x="10" y="3210">  │ │   └─┬ registry-url@3.1.0 </tspan>
<tspan x="10" y="3226">  │ │     └─┬ rc@1.2.1 </tspan>
<tspan x="10" y="3242">  │ │       ├── deep-extend@0.4.1 </tspan>
<tspan x="10" y="3258">  │ │       ├── ini@1.3.4 </tspan>
<tspan x="10" y="3274">  │ │       ├── minimist@1.2.0 </tspan>
<tspan x="10" y="3290">  │ │       └── strip-json-comments@2.0.1 </tspan>
<tspan x="10" y="3306">  │ ├─┬ repeating@1.1.3 </tspan>
<tspan x="10" y="3322">  │ │ └─┬ is-finite@1.0.2 </tspan>
<tspan x="10" y="3338">  │ │   └── number-is-nan@1.0.1 </tspan>
<tspan x="10" y="3354">  │ ├─┬ semver-diff@2.1.0 </tspan>
<tspan x="10" y="3370">  │ │ └── semver@5.3.0 </tspan>
<tspan x="10" y="3386">  │ └── string-length@1.0.1 </tspan>
<tspan x="10" y="3402">  └─┬ yargs@3.32.0 </tspan>
<tspan x="10" y="3418">    ├── camelcase@2.1.1 </tspan>
<tspan x="10" y="3434">    ├─┬ cliui@3.2.0 </tspan>
<tspan x="10" y="3450">    │ └── wrap-ansi@2.1.0 </tspan>
<tspan x="10" y="3466">    ├── decamelize@1.2.0 </tspan>
<tspan x="10" y="3482">    ├─┬ os-locale@1.4.0 </tspan>
<tspan x="10" y="3498">    │ └─┬ lcid@1.0.0 </tspan>
<tspan x="10" y="3514">    │   └── invert-kv@1.0.0 </tspan>
<tspan x="10" y="3530">    ├─┬ string-width@1.0.2 </tspan>
<tspan x="10" y="3546">    │ ├── code-point-at@1.1.0 </tspan>
<tspan x="10" y="3562">    │ └── is-fullwidth-code-point@1.0.0 </tspan>
<tspan x="10" y="3578">    ├── window-size@0.1.4 </tspan>
<tspan x="10" y="3594">    └── y18n@3.2.1</tspan>
</text>
</svg>
